<svg width="1440" height="1694" viewBox="0 0 1440 1694" fill="none" xmlns="http://www.w3.org/2000/svg">
<g opacity="0.2">
<path fill-rule="evenodd" clip-rule="evenodd" d="M689.488 1299.54C702.988 1332.22 702.785 1367.89 704.554 1404.03C706.348 1440.67 715.335 1479.22 699.852 1511.31C683.895 1544.38 650.967 1558.64 621.682 1575.8C588.4 1595.3 555.735 1621.72 518.581 1617.52C478.258 1612.96 433.155 1593.73 414.39 1552.39C395.866 1511.58 419.706 1463.53 428.259 1418.53C434.434 1386.04 443.996 1356.65 457.212 1327.08C472.268 1293.38 483.403 1256.27 510.427 1234.64C542.27 1209.16 582.233 1184.03 619.207 1197.43C656.089 1210.8 672.879 1259.33 689.488 1299.54Z" stroke="#FFF0CF" stroke-width="4"/>
<path fill-rule="evenodd" clip-rule="evenodd" d="M663.618 1302.27C673.14 1325.32 672.997 1350.48 674.245 1375.97C675.51 1401.82 681.849 1429 670.929 1451.64C659.673 1474.97 636.446 1485.03 615.79 1497.13C592.314 1510.89 569.273 1529.52 543.066 1526.56C514.623 1523.35 482.809 1509.78 469.573 1480.62C456.507 1451.83 473.323 1417.94 479.356 1386.2C483.712 1363.28 490.457 1342.55 499.779 1321.69C510.399 1297.92 518.253 1271.74 537.314 1256.49C559.776 1238.51 587.964 1220.79 614.044 1230.25C640.059 1239.67 651.903 1273.91 663.618 1302.27Z" stroke="#FFF0CF" stroke-width="4"/>
<path fill-rule="evenodd" clip-rule="evenodd" d="M626.386 1336.48C632.14 1350.41 632.054 1365.62 632.808 1381.02C633.572 1396.64 637.403 1413.07 630.804 1426.75C624.002 1440.84 609.968 1446.92 597.486 1454.24C583.3 1462.55 569.377 1473.81 553.541 1472.02C536.354 1470.08 517.13 1461.88 509.132 1444.26C501.237 1426.86 511.398 1406.38 515.044 1387.2C517.676 1373.36 521.751 1360.83 527.384 1348.22C533.802 1333.86 538.547 1318.04 550.066 1308.82C563.638 1297.96 580.671 1287.25 596.431 1292.97C612.151 1298.66 619.307 1319.35 626.386 1336.48Z" stroke="#FFF0CF" stroke-width="4"/>
<path fill-rule="evenodd" clip-rule="evenodd" d="M230.079 586.178C292.544 587.666 319.782 680.499 370.707 722.186C418.306 761.152 482.798 769.332 518.659 822.414C558.815 881.852 595.34 958.908 580.112 1032.15C564.912 1105.25 487.403 1131.57 442.934 1186.6C400.594 1238.98 381.04 1315.94 325.256 1347.48C265.77 1381.12 194.447 1384.82 130.944 1363.01C67.568 1341.23 21.6115 1282.9 -23.8288 1227.56C-71.1607 1169.92 -126.529 1113.35 -138.244 1035.17C-150.061 956.313 -130.388 869.844 -86.7675 807.547C-46.1706 749.568 30.3697 754.031 85.6638 715.399C138.861 678.232 167.871 584.697 230.079 586.178Z" stroke="#FFF0CF" stroke-width="4"/>
<path fill-rule="evenodd" clip-rule="evenodd" d="M227.837 677.122C275.972 678.267 296.961 749.744 336.203 781.84C372.883 811.842 422.579 818.14 450.213 859.01C481.156 904.775 509.302 964.104 497.567 1020.49C485.855 1076.78 426.128 1097.05 391.86 1139.41C359.233 1179.75 344.166 1239 301.179 1263.29C255.34 1289.18 200.38 1292.03 151.445 1275.24C102.608 1258.47 67.1945 1213.56 32.1788 1170.95C-4.29454 1126.57 -46.9604 1083.02 -55.9879 1022.83C-65.0942 962.106 -49.9342 895.53 -16.3209 847.564C14.9625 802.924 73.9435 806.359 116.552 776.615C157.545 747.998 179.9 675.981 227.837 677.122Z" stroke="#FFF0CF" stroke-width="4"/>
<path fill-rule="evenodd" clip-rule="evenodd" d="M225.8 765.733C259.983 766.545 274.889 817.208 302.756 839.959C328.804 861.224 364.095 865.688 383.72 894.658C405.694 927.096 425.682 969.149 417.348 1009.12C409.031 1049.01 366.616 1063.38 342.281 1093.41C319.111 1122 308.411 1164 277.884 1181.21C245.332 1199.57 206.302 1201.59 171.551 1189.68C136.87 1177.8 111.721 1145.97 86.8549 1115.77C60.9536 1084.31 30.6546 1053.44 24.2438 1010.77C17.777 967.733 28.5428 920.543 52.4131 886.545C74.6289 854.903 116.514 857.338 146.772 836.255C175.883 815.971 191.759 764.925 225.8 765.733Z" stroke="#FFF0CF" stroke-width="4"/>
<path fill-rule="evenodd" clip-rule="evenodd" d="M223.754 854.344C243.81 854.823 252.556 884.673 268.906 898.077C284.19 910.607 304.896 913.237 316.411 930.305C329.304 949.418 341.031 974.195 336.142 997.745C331.261 1021.25 306.375 1029.72 292.097 1047.41C278.502 1064.25 272.224 1089 254.313 1099.14C235.214 1109.96 212.313 1111.15 191.924 1104.13C171.575 1097.13 156.82 1078.37 142.23 1060.58C127.033 1042.05 109.255 1023.86 105.494 998.719C101.699 973.361 108.016 945.557 122.022 925.525C135.056 906.882 159.632 908.317 177.385 895.895C194.466 883.944 203.78 853.868 223.754 854.344Z" stroke="#FFF0CF" stroke-width="4"/>
<path fill-rule="evenodd" clip-rule="evenodd" d="M1082.11 249.107C1123.8 227.279 1172.59 214.727 1215.9 231.93C1257.76 248.56 1276.48 302.085 1307.42 338.603C1337.36 373.944 1378.02 397.707 1394.82 443.138C1413.16 492.726 1420.8 550.649 1404.5 601.15C1388.26 651.449 1348.81 687.363 1307.78 712.761C1270.56 735.807 1227.54 739.428 1185.33 736.832C1147.38 734.497 1114.03 714.626 1078.64 698.665C1038.31 680.479 988.223 677.48 963.271 636.693C938.04 595.449 946.295 539.358 950.457 489.139C954.488 440.506 964.237 393.12 986.883 351.829C1010.59 308.601 1041.7 270.262 1082.11 249.107Z" stroke="#FFF0CF" stroke-width="4"/>
<path fill-rule="evenodd" clip-rule="evenodd" d="M1099.76 303.047C1132.34 285.994 1170.45 276.187 1204.29 289.627C1237 302.62 1251.62 344.437 1275.79 372.969C1299.18 400.58 1330.96 419.145 1344.08 454.639C1358.41 493.381 1364.38 538.635 1351.64 578.09C1338.96 617.388 1308.13 645.447 1276.08 665.289C1247 683.294 1213.38 686.124 1180.41 684.095C1150.76 682.271 1124.71 666.747 1097.05 654.276C1065.55 640.068 1026.41 637.725 1006.92 605.859C987.207 573.636 993.657 529.813 996.909 490.579C1000.06 452.583 1007.67 415.562 1025.37 383.302C1043.89 349.529 1068.19 319.575 1099.76 303.047Z" stroke="#FFF0CF" stroke-width="4"/>
<path fill-rule="evenodd" clip-rule="evenodd" d="M1118.29 359.587C1141.3 347.537 1168.24 340.608 1192.14 350.105C1215.25 359.285 1225.59 388.831 1242.66 408.99C1259.19 428.498 1281.64 441.616 1290.91 466.694C1301.04 494.067 1305.25 526.041 1296.26 553.919C1287.29 581.685 1265.51 601.51 1242.87 615.53C1222.32 628.251 1198.57 630.25 1175.27 628.817C1154.32 627.528 1135.91 616.559 1116.37 607.748C1094.11 597.71 1066.46 596.054 1052.69 573.539C1038.76 550.772 1043.32 519.809 1045.62 492.087C1047.84 465.241 1053.22 439.084 1065.72 416.291C1078.81 392.428 1095.98 371.264 1118.29 359.587Z" stroke="#FFF0CF" stroke-width="4"/>
<path fill-rule="evenodd" clip-rule="evenodd" d="M1134.78 409.98C1149.28 402.391 1166.24 398.027 1181.3 404.008C1195.86 409.79 1202.36 428.399 1213.12 441.095C1223.53 453.382 1237.67 461.644 1243.51 477.439C1249.88 494.68 1252.54 514.818 1246.87 532.376C1241.23 549.863 1227.51 562.35 1213.25 571.18C1200.3 579.192 1185.35 580.452 1170.67 579.549C1157.48 578.737 1145.88 571.829 1133.58 566.279C1119.56 559.956 1102.14 558.914 1093.47 544.733C1084.7 530.394 1087.57 510.892 1089.01 493.433C1090.41 476.524 1093.8 460.049 1101.68 445.694C1109.92 430.664 1120.74 417.335 1134.78 409.98Z" stroke="#FFF0CF" stroke-width="4"/>
<path fill-rule="evenodd" clip-rule="evenodd" d="M1009.65 775.147C1062.28 774.008 1113.69 782.957 1161.77 807.631C1216.08 835.504 1269.44 869.48 1303.25 925.816C1340.59 988.048 1387.71 1069.59 1360.18 1138.27C1330.65 1211.94 1222.19 1184.97 1175.15 1245.39C1129.53 1303.99 1161.69 1415.51 1107.27 1463.13C1053.14 1510.51 972.188 1504.78 907.917 1479.23C844.719 1454.1 796.357 1393.07 763.067 1326.29C733.166 1266.32 742.931 1194.2 731.917 1126.22C720.289 1054.45 669.23 981.44 696.518 915.544C723.862 849.515 801.961 840.675 861.155 814.134C909.442 792.484 957.84 776.268 1009.65 775.147Z" stroke="#FFF0CF" stroke-width="4"/>
<path fill-rule="evenodd" clip-rule="evenodd" d="M1013.42 852.082C1054.88 851.185 1095.39 858.236 1133.27 877.677C1176.06 899.64 1218.09 926.41 1244.73 970.801C1274.15 1019.84 1311.27 1084.09 1289.58 1138.2C1266.32 1196.25 1180.86 1175 1143.81 1222.61C1107.86 1268.78 1133.21 1356.65 1090.33 1394.18C1047.68 1431.5 983.907 1426.99 933.272 1406.86C883.482 1387.06 845.382 1338.97 819.155 1286.35C795.598 1239.1 803.291 1182.27 794.614 1128.71C785.453 1072.16 745.227 1014.63 766.726 962.707C788.268 910.679 849.797 903.714 896.432 882.802C934.473 865.742 972.603 852.965 1013.42 852.082Z" stroke="#FFF0CF" stroke-width="4"/>
<path fill-rule="evenodd" clip-rule="evenodd" d="M1018.02 940.674C1046.63 940.055 1074.58 944.915 1100.72 958.313C1130.24 973.449 1159.25 991.898 1177.62 1022.49C1197.92 1056.28 1223.54 1100.56 1208.57 1137.86C1192.52 1177.86 1133.56 1163.22 1107.99 1196.02C1083.19 1227.85 1100.68 1288.41 1071.09 1314.26C1041.66 1339.99 997.662 1336.88 962.725 1323.01C928.371 1309.36 902.082 1276.22 883.986 1239.96C867.732 1207.39 873.041 1168.23 867.053 1131.31C860.733 1092.34 832.977 1052.7 847.811 1016.91C862.675 981.057 905.129 976.257 937.306 961.845C963.554 950.088 989.863 941.282 1018.02 940.674Z" stroke="#FFF0CF" stroke-width="4"/>
<path fill-rule="evenodd" clip-rule="evenodd" d="M1021.96 1016.44C1039.59 1016.06 1056.82 1019.05 1072.93 1027.28C1091.13 1036.58 1109.01 1047.91 1120.34 1066.7C1132.85 1087.46 1148.64 1114.65 1139.42 1137.56C1129.52 1162.14 1093.18 1153.14 1077.42 1173.29C1062.13 1192.84 1072.91 1230.04 1054.67 1245.92C1036.53 1261.72 1009.4 1259.81 987.868 1251.29C966.691 1242.91 950.486 1222.55 939.33 1200.28C929.311 1180.27 932.583 1156.22 928.892 1133.54C924.996 1109.6 907.887 1085.25 917.031 1063.27C926.193 1041.25 952.363 1038.3 972.199 1029.45C988.379 1022.23 1004.6 1016.82 1021.96 1016.44Z" stroke="#FFF0CF" stroke-width="4"/>
<path fill-rule="evenodd" clip-rule="evenodd" d="M-136.794 33.986C-84.7091 38.2331 -33.8658 29.1278 16.3471 45.6223C82.021 67.1955 161.869 77.2297 198.007 143.965C234.119 210.652 222.496 303.17 194.673 374.934C169.275 440.446 97.7792 459.252 55.3897 511.829C15.1334 561.761 11.3622 660.014 -46.524 674.1C-105.659 688.489 -145.012 598.709 -201.638 574.372C-252.235 552.626 -314.094 577.235 -357.61 540.401C-404.22 500.948 -450.792 436.54 -442.331 370.64C-433.481 301.714 -342.051 288.694 -317.138 225.2C-292.047 161.253 -349.365 66.9864 -304.537 19.457C-262.433 -25.1851 -193.883 29.3309 -136.794 33.986Z" stroke="#FFF0CF" stroke-width="4"/>
<path fill-rule="evenodd" clip-rule="evenodd" d="M-130.41 108.923C-91.175 112.128 -52.8757 105.257 -15.0512 117.705C34.4197 133.985 94.568 141.557 121.79 191.919C148.992 242.244 140.237 312.063 119.279 366.22C100.146 415.659 46.2901 429.85 14.3589 469.528C-15.9655 507.209 -18.8063 581.356 -62.4108 591.985C-106.956 602.844 -136.6 535.092 -179.255 516.726C-217.369 500.315 -263.966 518.886 -296.746 491.089C-331.856 461.317 -366.939 412.711 -360.565 362.979C-353.898 310.965 -285.026 301.139 -266.26 253.223C-247.359 204.965 -290.535 133.827 -256.767 97.959C-225.051 64.2698 -173.413 105.41 -130.41 108.923Z" stroke="#FFF0CF" stroke-width="4"/>
<path fill-rule="evenodd" clip-rule="evenodd" d="M-123.036 197.566C-98.891 199.536 -75.3222 195.312 -52.0456 202.963C-21.602 212.971 15.4124 217.625 32.1644 248.581C48.9044 279.515 43.5161 322.431 30.6189 355.72C18.8451 386.11 -14.2971 394.833 -33.9471 419.222C-52.6083 442.383 -54.3564 487.96 -81.19 494.494C-108.602 501.169 -126.845 459.522 -153.094 448.233C-176.549 438.146 -205.224 449.561 -225.396 432.475C-247.003 414.174 -268.592 384.297 -264.669 353.729C-260.567 321.756 -218.184 315.716 -206.635 286.264C-195.004 256.601 -221.574 212.873 -200.794 190.826C-181.276 170.118 -149.499 195.406 -123.036 197.566Z" stroke="#FFF0CF" stroke-width="4"/>
<path fill-rule="evenodd" clip-rule="evenodd" d="M608.195 29.9956C677.144 31.4635 698.241 144.517 737.161 210.077C761.936 251.809 769.58 301.507 794.22 343.345C826.047 397.386 903.875 424.557 901.914 489.816C900.019 552.891 822.426 571.462 785.951 618.565C750.213 664.717 741.993 746.479 690.277 763.119C638.465 779.79 592.646 720.699 543.041 696.723C499.856 675.85 453.173 666.472 417.637 631.34C378.318 592.468 351.648 541.812 330.989 487.082C304.423 416.704 246.946 335.082 280.872 269.032C316.059 200.53 417.762 247.142 476.127 204.519C533.884 162.341 539.816 28.5399 608.195 29.9956Z" stroke="#FFF0CF" stroke-width="4"/>
<path fill-rule="evenodd" clip-rule="evenodd" d="M601.369 146.591C648.46 147.593 662.869 224.78 689.451 269.541C706.373 298.034 711.593 331.965 728.422 360.53C750.16 397.426 803.315 415.977 801.976 460.533C800.682 503.597 747.686 516.277 722.774 548.436C698.365 579.946 692.751 635.77 657.43 647.13C622.043 658.513 590.749 618.168 556.869 601.799C527.374 587.547 495.49 581.145 471.219 557.158C444.365 530.618 426.15 496.033 412.04 458.666C393.895 410.616 354.639 354.888 377.811 309.793C401.842 263.023 471.305 294.847 511.168 265.747C550.615 236.949 554.667 145.597 601.369 146.591Z" stroke="#FFF0CF" stroke-width="4"/>
<path fill-rule="evenodd" clip-rule="evenodd" d="M593.955 270.182C617.833 270.691 625.139 309.911 638.617 332.655C647.197 347.133 649.844 364.374 658.377 378.889C669.399 397.636 696.351 407.063 695.672 429.702C695.016 451.584 668.145 458.027 655.513 474.368C643.137 490.379 640.29 518.743 622.381 524.516C604.438 530.3 588.571 509.8 571.392 501.482C556.437 494.241 540.27 490.987 527.964 478.799C514.348 465.314 505.112 447.74 497.958 428.754C488.757 404.338 468.853 376.022 480.602 353.108C492.787 329.343 528.008 345.514 548.22 330.727C568.221 316.095 570.275 269.677 593.955 270.182Z" stroke="#FFF0CF" stroke-width="4"/>
</g>
</svg>
