<svg width="124" height="127" viewBox="0 0 124 127" fill="none" xmlns="http://www.w3.org/2000/svg">
<path d="M121.056 5.77914C97.3906 5.35482 70.4013 17.7256 53.3177 36.9156C36.9917 37.2237 21.0952 43.9168 9.39122 55.6207C8.70929 56.2925 8.46683 57.2977 8.76486 58.207C9.06794 59.1213 9.85595 59.783 10.8056 59.9194L30.2735 62.7077L27.869 65.4001C26.9749 66.4003 27.0204 67.9207 27.97 68.8704L60.435 101.335C60.925 101.825 61.5716 102.073 62.2232 102.073C62.8243 102.073 63.4254 101.861 63.9053 101.431L66.5976 99.0269L69.386 118.495C69.5224 119.444 70.27 120.141 71.1742 120.445C71.4065 120.52 71.649 120.556 71.8965 120.556C72.6138 120.556 73.3462 120.242 73.8514 119.742C85.3937 108.2 92.0867 92.3035 92.3948 75.9776C111.605 58.8586 124.077 31.8794 123.526 8.24419C123.491 6.90053 122.405 5.81449 121.056 5.77914ZM97.7796 49.3823C95.3195 51.8423 92.0867 53.0748 88.8488 53.0748C85.6109 53.0748 82.378 51.8423 79.918 49.3823C74.998 44.4572 74.998 36.4458 79.918 31.5208C84.8431 26.5957 92.8545 26.5957 97.7796 31.5208C102.705 36.4458 102.705 44.4623 97.7796 49.3823Z" fill="#FFF0CF"/>
<path d="M16.0692 91.1569C10.6643 96.5618 3.24387 120.98 2.41545 123.743C2.14773 124.632 2.39524 125.597 3.04687 126.254C3.5318 126.739 4.17332 126.996 4.83504 126.996C5.07751 126.996 5.31997 126.961 5.56243 126.89C8.32552 126.062 32.7437 118.641 38.1486 113.236C44.2355 107.149 44.2355 97.2437 38.1486 91.1569C32.0567 85.07 22.1561 85.0751 16.0692 91.1569Z" fill="#FFF0CF"/>
<path d="M51.0275 32.1469L51.4647 32.1386L51.7555 31.812C68.6618 12.8211 95.3773 0.593411 118.724 1.01034C119.541 1.03365 120.196 1.6924 120.217 2.50194C120.759 25.8122 108.435 52.5177 89.4204 69.4625L89.0942 69.7532L89.0859 70.1902C88.7826 86.2595 82.1932 101.908 70.8368 113.265C70.5119 113.586 70.0307 113.787 69.5874 113.787C69.4371 113.787 69.3013 113.766 69.1787 113.726C68.5273 113.507 68.1348 113.058 68.0667 112.584L65.2785 93.1165L65.014 91.2698L63.6225 92.5124L60.9301 94.9169L60.9294 94.9175C60.6404 95.1761 60.2795 95.3043 59.9141 95.3043C59.5156 95.3043 59.1271 95.1538 58.833 94.8597L26.3681 62.3947C25.7918 61.8184 25.7667 60.9007 26.3055 60.298L26.3058 60.2976L28.7102 57.6053L29.9529 56.2138L28.1062 55.9493L8.63868 53.161C8.0673 53.0789 7.59055 52.6814 7.40557 52.1255C7.22616 51.5764 7.37362 50.9688 7.78397 50.5645L7.78925 50.5593C19.3096 39.0389 34.9592 32.4501 51.0275 32.1469ZM76.9015 44.3205L76.9018 44.3209C79.5574 46.9765 83.0482 48.3063 86.5397 48.3063C90.0312 48.3063 93.522 46.9765 96.1776 44.3209C101.493 39.01 101.493 30.3604 96.1776 25.0451C90.862 19.7295 82.2174 19.7295 76.9018 25.0451L76.9015 25.0455C71.5914 30.361 71.5914 39.005 76.9015 44.3205Z" stroke="black" stroke-width="2"/>
<path d="M35.8395 85.3883C29.7476 79.3015 19.847 79.3065 13.7601 85.3883C8.35521 90.7933 0.934788 115.211 0.106368 117.975C-0.161353 118.864 0.0861627 119.828 0.737786 120.485M35.8395 85.3883L35.1324 86.0954M35.8395 85.3883C41.9264 91.4752 41.9264 101.381 35.8395 107.468C30.4346 112.873 6.01644 120.293 3.25335 121.121C3.01089 121.192 2.76842 121.228 2.52596 121.228C1.86423 121.228 1.22271 120.97 0.737786 120.485M35.8395 85.3883L35.1327 86.0957M35.1324 86.0954C29.4313 80.3993 20.1638 80.4039 14.4672 86.0954M35.1324 86.0954C35.1325 86.0955 35.1326 86.0956 35.1327 86.0957M35.1324 86.0954C35.1325 86.0955 35.1326 86.0956 35.1327 86.0957M14.4672 86.0954L13.7603 85.3885L14.467 86.0957M14.4672 86.0954C14.4671 86.0955 14.4671 86.0956 14.467 86.0957M14.4672 86.0954C14.4671 86.0955 14.4671 86.0956 14.467 86.0957M14.467 86.0957C13.2496 87.3133 11.8341 89.71 10.3663 92.8006C8.91567 95.8551 7.46719 99.4695 6.15502 103.019C3.53152 110.115 1.4763 116.887 1.06424 118.262L1.06389 118.263C0.903566 118.795 1.05058 119.38 1.44628 119.779M1.44628 119.779C1.44582 119.779 1.44535 119.778 1.44489 119.778L0.737786 120.485M1.44628 119.779C1.74125 120.074 2.12689 120.228 2.52596 120.228C2.66882 120.228 2.81607 120.207 2.97025 120.162C4.35389 119.748 11.1196 117.694 18.209 115.073C21.7583 113.761 25.3728 112.312 28.4273 110.862C31.5181 109.394 33.915 107.978 35.1324 106.761C40.8287 101.064 40.8288 91.7921 35.1327 86.0957M1.44628 119.779C1.44672 119.78 1.44717 119.78 1.44762 119.781L0.737786 120.485" stroke="black" stroke-width="2"/>
</svg>
